<svg xmlns="http://www.w3.org/2000/svg" viewBox="0 0 800 500" preserveAspectRatio="xMidYMid slice">
  <rect width="800" height="500" fill="#0a0a0a"/>
  <g fill="#1a1a1a">
    <rect x="60" y="60" width="200" height="240" rx="4"/>
    <rect x="280" y="60" width="200" height="240" rx="4"/>
    <rect x="500" y="60" width="200" height="240" rx="4"/>
  </g>
  <g fill="#2a2a2a">
    <circle cx="160" cy="140" r="28"/>
    <circle cx="380" cy="140" r="28"/>
    <circle cx="600" cy="140" r="28"/>
  </g>
  <g fill="#2a2a2a">
    <rect x="90" y="195" width="140" height="5" rx="1"/>
    <rect x="110" y="210" width="100" height="4" rx="1"/>
    <rect x="310" y="195" width="140" height="5" rx="1"/>
    <rect x="330" y="210" width="100" height="4" rx="1"/>
    <rect x="530" y="195" width="140" height="5" rx="1"/>
    <rect x="550" y="210" width="100" height="4" rx="1"/>
  </g>
  <g fill="#444">
    <rect x="100" y="250" width="120" height="26" rx="13"/>
    <rect x="320" y="250" width="120" height="26" rx="13"/>
    <rect x="540" y="250" width="120" height="26" rx="13"/>
  </g>
  <text x="400" y="400" text-anchor="middle" fill="#fff" font-family="Inter, sans-serif" font-size="44" font-weight="600" letter-spacing="14">PATAPORTE</text>
  <text x="400" y="440" text-anchor="middle" fill="#555" font-family="Inter, sans-serif" font-size="10" font-weight="300" letter-spacing="5">PET CARE PLATFORM</text>
</svg>
